<?xml version="1.0" encoding="UTF-8"?>
<svg width="24px" height="24px" viewBox="0 0 24 24" version="1.1" xmlns="http://www.w3.org/2000/svg" xmlns:xlink="http://www.w3.org/1999/xlink">
    <!-- Generator: Sketch 42 (36781) - http://www.bohemiancoding.com/sketch -->
    <title>icon_sl</title>
    <desc>Created with Sketch.</desc>
    <defs>
        <polygon id="path-1" points="0.0477292594 15.9921311 12.284357 15.9921311 12.284357 0.00497516103 0.0477292594 0.00497516103 0.0477292594 15.9921311"></polygon>
    </defs>
    <g id="Page-1" stroke="none" stroke-width="1" fill="none" fill-rule="evenodd">
        <g id="Artboard-Copy" transform="translate(-588.000000, -2282.000000)">
            <g id="Group-18" transform="translate(0.000000, 2073.000000)">
                <g id="Group-16" transform="translate(211.000000, 20.000000)">
                    <g id="Group-17" transform="translate(332.000000, 0.000000)">
                        <g id="Group-12">
                            <g id="Group-2" transform="translate(40.000000, 97.000000)">
                                <g id="icon_sl" transform="translate(5.000000, 92.000000)">
                                    <g id="slack_cmyk" transform="translate(3.000000, 4.000000)">
                                        <g id="Group-4" transform="translate(1.836066, 0.000000)">
                                            <mask id="mask-2" fill="white">
                                                <use xlink:href="#path-1"></use>
                                            </mask>
                                            <g id="Clip-2"></g>
                                            <path d="M8.53665574,0.989901639 C8.2935082,0.241442623 7.48970492,-0.168131148 6.74137705,0.075147541 C5.99291803,0.318295082 5.58334426,1.12209836 5.82662295,1.87042623 L9.51081967,13.2057705 C9.76380328,13.904918 10.519082,14.2978361 11.2440656,14.0891803 C12.0002623,13.8714754 12.4612459,13.0683279 12.2199344,12.3256393 C12.2107541,12.2973115 8.53665574,0.989901639 8.53665574,0.989901639" id="Fill-1" fill="#FFFFFF" mask="url(#mask-2)"></path>
                                            <path d="M2.82806557,2.84472131 C2.58478689,2.09639344 1.78098361,1.68681967 1.03265574,1.92996721 C0.284196721,2.17311475 -0.125377049,2.97691803 0.117901639,3.72537705 L3.80209836,15.0607213 C4.05508197,15.7598689 4.81036066,16.1527869 5.53534426,15.944 C6.29154098,15.7264262 6.75252459,14.9232787 6.51121311,14.180459 C6.50203279,14.1522623 2.82806557,2.84472131 2.82806557,2.84472131" id="Fill-3" fill="#FFFFFF" mask="url(#mask-2)"></path>
                                        </g>
                                        <path d="M15.0100984,10.3778361 C15.7585574,10.1346885 16.168,9.33088525 15.9248525,8.58242623 C15.6817049,7.83409836 14.8779016,7.42452459 14.1295738,7.66767213 L2.79422951,11.352 C2.09508197,11.6048525 1.70216393,12.3601311 1.91081967,13.0851148 C2.12852459,13.8413115 2.93167213,14.3022951 3.67436066,14.0609836 C3.70268852,14.0518033 15.0100984,10.3778361 15.0100984,10.3778361" id="Fill-5" fill="#FFFFFF"></path>
                                        <path d="M5.15672131,13.5794098 C5.89455738,13.3396721 6.8455082,13.0306885 7.86596721,12.6991475 C7.62622951,11.9613115 7.3172459,11.0102295 6.98557377,9.98963934 L4.27619672,10.8702951 L5.15672131,13.5794098" id="Fill-6" fill="#FFFFFF"></path>
                                        <path d="M10.8654426,11.724459 C11.8897049,11.3917377 12.8417049,11.0823607 13.5746885,10.8441967 C13.3349508,10.1063607 13.0258361,9.15501639 12.6941639,8.13416393 L9.98478689,9.01481967 L10.8654426,11.724459" id="Fill-7" fill="#FFFFFF"></path>
                                        <path d="M13.1552787,4.66911475 C13.9036066,4.42596721 14.3131803,3.62216393 14.0700328,2.87370492 C13.8268852,2.12537705 13.023082,1.71580328 12.274623,1.95895082 L0.939278689,5.64327869 C0.240131148,5.89613115 -0.152786885,6.65140984 0.056,7.37639344 C0.27357377,8.13259016 1.07672131,8.59357377 1.81954098,8.3522623 C1.8477377,8.34308197 13.1552787,4.66911475 13.1552787,4.66911475" id="Fill-9" fill="#FFFFFF"></path>
                                        <path d="M3.30137705,7.87081967 C4.03921311,7.63108197 4.99042623,7.32196721 6.01101639,6.99042623 C5.67829508,5.96603279 5.36891803,5.01403279 5.1307541,4.28091803 L2.42072131,5.16170492 L3.30137705,7.87081967" id="Fill-11" fill="#FFFFFF"></path>
                                        <path d="M9.00996721,6.016 C10.0344918,5.68314754 10.986623,5.37377049 11.7197377,5.13547541 C11.3868852,4.11095082 11.0775082,3.15868852 10.8392131,2.42544262 L8.12931148,3.30622951 L9.00996721,6.016" id="Fill-12" fill="#FFFFFF"></path>
                                    </g>
                                </g>
                            </g>
                        </g>
                    </g>
                </g>
            </g>
        </g>
    </g>
</svg>