<?xml version="1.0" encoding="UTF-8" standalone="no"?>
<svg width="60px" height="60px" viewBox="0 0 60 60" version="1.1" xmlns="http://www.w3.org/2000/svg" xmlns:xlink="http://www.w3.org/1999/xlink">
    <!-- Generator: sketchtool 3.7 (28169) - http://www.bohemiancoding.com/sketch -->
    <title>5036CA0C-CE35-498B-B3A0-2804F4E79402</title>
    <desc>Created with sketchtool.</desc>
    <defs></defs>
    <g id="Page-1" stroke="none" stroke-width="1" fill="none" fill-rule="evenodd">
        <g id="desktop" transform="translate(-380.000000, -5904.000000)" fill="#7099E6">
            <g id="slide5" transform="translate(0.000000, 5600.000000)">
                <g id="Group-6" transform="translate(280.000000, 204.000000)">
                    <g id="icon_eye" transform="translate(100.000000, 100.000000)">
                        <g id="Group-11" transform="translate(6.000000, 15.886525)">
                            <path d="M16.0980909,6.83396288 C20.4223665,3.39907731 27.5771973,3.39873064 31.9019095,6.8339629 L40.7848587,13.9007084 L31.9019095,20.9674549 C27.5776337,24.4023404 20.4228029,24.402687 16.0980909,20.9674549 L7.1429443,13.9007084 L16.0980909,6.83396288 Z M2.75060991,12.3500476 L0.798437832,13.9007091 L2.75060994,15.4513706 L13.5993108,24.0687779 C19.3849607,28.6644713 28.6156025,28.664024 34.4006896,24.068778 L45.2493908,15.4513706 L47.201563,13.9007091 L45.2493909,12.3500476 L34.4006896,3.73263992 C28.6150395,-0.863053607 19.3843976,-0.862606353 13.5993107,3.73263994 L2.75060991,12.3500476 L2.75060991,12.3500476 Z" id="Path-17"></path>
                            <path d="M24,19.8723404 C27.3105345,19.8723404 30,17.2019491 30,13.9007092 C30,10.5994693 27.3105345,7.92907801 24,7.92907801 C20.6894655,7.92907801 18,10.5994693 18,13.9007092 C18,17.2019491 20.6894655,19.8723404 24,19.8723404 L24,19.8723404 Z M24,15.8723404 C22.8922565,15.8723404 22,14.986412 22,13.9007092 C22,12.8150065 22.8922565,11.929078 24,11.929078 C25.1077435,11.929078 26,12.8150065 26,13.9007092 C26,14.986412 25.1077435,15.8723404 24,15.8723404 L24,15.8723404 Z" id="Oval-10"></path>
                        </g>
                    </g>
                </g>
            </g>
        </g>
    </g>
</svg>