<?xml version="1.0" encoding="UTF-8" standalone="no"?>
<svg width="60px" height="60px" viewBox="0 0 60 60" version="1.1" xmlns="http://www.w3.org/2000/svg" xmlns:xlink="http://www.w3.org/1999/xlink">
    <!-- Generator: sketchtool 3.7 (28169) - http://www.bohemiancoding.com/sketch -->
    <title>6F7C31E1-35B6-4311-A8F9-9D0D004800B2</title>
    <desc>Created with sketchtool.</desc>
    <defs></defs>
    <g id="Page-1" stroke="none" stroke-width="1" fill="none" fill-rule="evenodd">
        <g id="desktop" transform="translate(-1180.000000, -5904.000000)" fill="#A187D5">
            <g id="slide5" transform="translate(0.000000, 5600.000000)">
                <g id="Group-7" transform="translate(1080.000000, 204.000000)">
                    <g id="icon_decentralized" transform="translate(100.000000, 100.000000)">
                        <g id="Group-31" transform="translate(4.000000, 9.929078)">
                            <path d="M4,8.93617021 C4,6.19737163 6.24337864,3.97163121 9,3.97163121 C11.7583614,3.97163121 14,6.19909936 14,8.93617021 C14,11.6749688 11.7566214,13.9007092 9,13.9007092 C6.24163857,13.9007092 4,11.6732411 4,8.93617021 L4,8.93617021 Z M0,8.93617021 C0,13.8660228 4.03180447,17.8723404 9,17.8723404 C13.9650658,17.8723404 18,13.8691303 18,8.93617021 C18,4.0063176 13.9681955,0 9,0 C4.03493415,0 0,4.00321011 0,8.93617021 L0,8.93617021 Z" id="Rectangle-112-Copy"></path>
                            <path d="M12,31.7730496 C12,28.4862683 14.6918296,25.8156028 18,25.8156028 C21.3102584,25.8156028 24,28.4883414 24,31.7730496 C24,35.059831 21.3081704,37.7304965 18,37.7304965 C14.6897416,37.7304965 12,35.0577579 12,31.7730496 L12,31.7730496 Z M8,31.7730496 C8,37.2505397 12.4799075,41.7021277 18,41.7021277 C23.5166149,41.7021277 28,37.2539925 28,31.7730496 C28,26.2955596 23.5200925,21.8439716 18,21.8439716 C12.4833851,21.8439716 8,26.2921068 8,31.7730496 L8,31.7730496 Z" id="Rectangle-112-Copy-2"></path>
                            <rect id="Rectangle-115" transform="translate(19.000000, 9.432624) rotate(10.000000) translate(-19.000000, -9.432624) " x="14" y="7.94326241" width="10" height="2.9787234"></rect>
                            <rect id="Rectangle-115-Copy-2" transform="translate(36.000000, 17.375887) rotate(-315.000000) translate(-36.000000, -17.375887) " x="32" y="15.8865248" width="8" height="2.9787234"></rect>
                            <path d="M26,11.9148936 C26,9.7240778 27.7949277,7.94326241 30,7.94326241 C32.2064645,7.94326241 34,9.72546016 34,11.9148936 C34,14.1057094 32.2050723,15.8865248 30,15.8865248 C27.7935355,15.8865248 26,14.1043271 26,11.9148936 L26,11.9148936 Z M22,11.9148936 C22,16.2971088 25.5837014,19.858156 30,19.858156 C34.4135168,19.858156 38,16.299871 38,11.9148936 C38,7.53267839 34.4162986,3.97163121 30,3.97163121 C25.5864832,3.97163121 22,7.52991627 22,11.9148936 L22,11.9148936 Z" id="Rectangle-112-Copy-4"></path>
                            <rect id="Rectangle-115-Copy-3" transform="translate(32.000000, 27.304965) rotate(-200.000000) translate(-32.000000, -27.304965) " x="24" y="25.8156028" width="16" height="2.9787234"></rect>
                            <path d="M40,23.8297872 C40,21.6389714 41.7949277,19.858156 44,19.858156 C46.2064645,19.858156 48,21.6403538 48,23.8297872 C48,26.0206031 46.2050723,27.8014184 44,27.8014184 C41.7935355,27.8014184 40,26.0192207 40,23.8297872 L40,23.8297872 Z M36,23.8297872 C36,28.2120025 39.5837014,31.7730496 44,31.7730496 C48.4135168,31.7730496 52,28.2147646 52,23.8297872 C52,19.447572 48.4162986,15.8865248 44,15.8865248 C39.5864832,15.8865248 36,19.4448099 36,23.8297872 L36,23.8297872 Z" id="Rectangle-112-Copy-5"></path>
                            <rect id="Rectangle-115-Copy" transform="translate(13.000000, 21.347518) rotate(-293.000000) translate(-13.000000, -21.347518) " x="8" y="19.858156" width="10" height="2.9787234"></rect>
                        </g>
                    </g>
                </g>
            </g>
        </g>
    </g>
</svg>