<?xml version="1.0" encoding="utf-8"?>
<!-- Generator: Adobe Illustrator 19.2.0, SVG Export Plug-In . SVG Version: 6.00 Build 0)  -->
<svg version="1.1" id="Layer_2" xmlns="http://www.w3.org/2000/svg" xmlns:xlink="http://www.w3.org/1999/xlink" x="0px" y="0px"
	 viewBox="0 0 36 36" style="enable-background:new 0 0 36 36;" xml:space="preserve">
<style type="text/css">
	.st0{fill:#FFFFFF;}
</style>
<g transform="translate(0.000000,300.000000) scale(0.100000,-0.100000)">
	<path id="node1" class="st0" d="M61.3,2928c-4.7-2.2-9.4-6.8-11.3-11c-1.2-2.6-1.7-5.7-1.7-11.6v-8l13.4-10.5
		c53.9-42.4,95.2-70.5,112.4-76.7c5.9-2.1,5.9-2.1,10.4-0.5c9.3,3.2,19.4,8.9,38.3,21.3c9.3,6.1,11.6,7.6,26,17.9
		c11,7.8,35,25.9,49.9,37.7l12.9,10.2v7.9c-0.1,12-3.7,18.7-12.7,22.9l-4.4,2.1l-115-0.1C72.1,2929.5,64.4,2929.4,61.3,2928z"/>
	<path id="node2" class="st0" d="M48.3,2795.5c0-75.7-0.3-72.1,5.5-78c1.6-1.7,4.7-4,6.9-5.1l4.1-2.1h114.8h114.8l4.4,2.1
		c5.2,2.4,9.3,6.8,11.3,12c1.3,3.5,1.4,10.5,1.2,71.7l-0.3,67.9l-9.4-7.4c-11.5-8.9-19.8-15.2-24.8-18.7c-2-1.4-11.4-8.2-20.7-14.8
		c-31.9-22.8-56.4-37.9-69-42.2c-6.1-2.1-7.2-2.2-10.8-1.3c-6.2,1.6-20.3,8.6-30.8,15.4c-8.3,5.4-31.8,21-36.5,24.3
		c-20.7,14.6-48.7,35.1-58.4,42.7l-2.5,2.1V2795.5z"/>
</g>
</svg>
