<?xml version="1.0" encoding="UTF-8" standalone="no"?>
<svg width="60px" height="60px" viewBox="0 0 60 60" version="1.1" xmlns="http://www.w3.org/2000/svg" xmlns:xlink="http://www.w3.org/1999/xlink">
    <!-- Generator: sketchtool 3.7 (28169) - http://www.bohemiancoding.com/sketch -->
    <title>97FC3A42-1310-4ACD-BBDE-E74D0341D132</title>
    <desc>Created with sketchtool.</desc>
    <defs></defs>
    <g id="Page-1" stroke="none" stroke-width="1" fill="none" fill-rule="evenodd">
        <g id="desktop" transform="translate(-380.000000, -2119.000000)">
            <g id="slide2" transform="translate(0.000000, 1400.000000)">
                <g id="1" transform="translate(280.000000, 619.000000)">
                    <g id="icon_key" transform="translate(100.000000, 100.000000)">
                        <ellipse id="Oval-17-Copy" fill="#E2EBFA" cx="18" cy="33.4514286" rx="12" ry="11.7942857"></ellipse>
                        <path d="M44,37.52 L47.0571289,37.52 C48.6754698,37.52 50,36.1998796 50,34.5714286 C50,32.9316243 48.6824317,31.6228571 47.0571289,31.6228571 L28.9428711,31.6228571 C27.3245302,31.6228571 26,32.9429775 26,34.5714286 C26,36.2112329 27.3175683,37.52 28.9428711,37.52 L38,37.52 L38,40.5642428 C38,42.2102651 39.3431458,43.5542857 41,43.5542857 C42.6684055,43.5542857 44,42.2155979 44,40.5642428 L44,37.52 L44,37.52 Z" id="Combined-Shape-Copy-5" fill="#E2EBFA"></path>
                        <path d="M22,39.3828571 L22,39.3828571 C15.372583,39.3828571 10,34.1023756 10,27.5885714 C10,21.0747673 15.372583,15.7942857 22,15.7942857 C28.627417,15.7942857 34,21.0747673 34,27.5885714 C34,34.1023756 28.627417,39.3828571 22,39.3828571 L22,39.3828571 Z" id="Oval-17" fill="#7099E6"></path>
                        <path d="M22,33.3828571 L22,33.3828571 C25.336709,33.3828571 28,30.7652225 28,27.5885714 C28,24.4119203 25.336709,21.7942857 22,21.7942857 C18.663291,21.7942857 16,24.4119203 16,27.5885714 C16,30.7652225 18.663291,33.3828571 22,33.3828571 L22,33.3828571 Z" id="Path" fill="#E2EBFA"></path>
                        <path d="M48,31.52 L51.0571289,31.52 C52.6754698,31.52 54,30.1998796 54,28.5714286 C54,26.9316243 52.6824317,25.6228571 51.0571289,25.6228571 L32.9428711,25.6228571 C31.3245302,25.6228571 30,26.9429775 30,28.5714286 C30,30.2112329 31.3175683,31.52 32.9428711,31.52 L42,31.52 L42,34.5642428 C42,36.2102651 43.3431458,37.5542857 45,37.5542857 C46.6684055,37.5542857 48,36.2155979 48,34.5642428 L48,31.52 L48,31.52 Z" id="Combined-Shape" fill="#7099E6"></path>
                    </g>
                </g>
            </g>
        </g>
    </g>
</svg>