<?xml version="1.0" encoding="UTF-8" standalone="no"?>
<svg width="60px" height="60px" viewBox="0 0 60 60" version="1.1" xmlns="http://www.w3.org/2000/svg" xmlns:xlink="http://www.w3.org/1999/xlink">
    <!-- Generator: sketchtool 3.7 (28169) - http://www.bohemiancoding.com/sketch -->
    <title>242FCF4E-991D-421F-8D47-E95F4255812A</title>
    <desc>Created with sketchtool.</desc>
    <defs></defs>
    <g id="Page-1" stroke="none" stroke-width="1" fill="none" fill-rule="evenodd">
        <g id="desktop" transform="translate(-1180.000000, -2119.000000)">
            <g id="slide2" transform="translate(0.000000, 1400.000000)">
                <g id="2" transform="translate(1080.000000, 619.000000)">
                    <g id="icon_wand" transform="translate(100.000000, 100.000000)">
                        <g id="Group-15" transform="translate(5.000000, 6.000000)">
                            <ellipse id="Oval-20" fill="#E9D6FB" opacity="0.4" cx="20" cy="19.6571429" rx="20" ry="19.6571429"></ellipse>
                            <ellipse id="Oval-21" fill="#B574F0" cx="22" cy="9.82857143" rx="4" ry="3.93142857"></ellipse>
                            <ellipse id="Oval-21-Copy-2" fill="#B574F0" cx="9" cy="12.7771429" rx="3" ry="2.94857143"></ellipse>
                            <ellipse id="Oval-21-Copy" fill="#B574F0" opacity="0.3" cx="12" cy="27.52" rx="6" ry="5.89714286"></ellipse>
                            <path d="M23.2720779,20.6892208 C24.8073963,19.1539024 27.2970382,19.1543014 28.8368662,20.6941294 L48.7230134,40.5802767 C50.2610428,42.118306 50.2601164,44.6128706 48.7279221,46.1450649 L48.7279221,46.1450649 C47.1926037,47.6803833 44.7029618,47.6799843 43.1631338,46.1401563 L23.2769866,26.254009 C21.7389572,24.7159797 21.7398836,22.2214151 23.2720779,20.6892208 L23.2720779,20.6892208 L23.2720779,20.6892208 Z" id="Rectangle-116" fill="#B574F0"></path>
                        </g>
                    </g>
                </g>
            </g>
        </g>
    </g>
</svg>