<?xml version="1.0" encoding="UTF-8" standalone="no"?>
<svg width="32px" height="32px" viewBox="0 0 32 32" version="1.1" xmlns="http://www.w3.org/2000/svg" xmlns:xlink="http://www.w3.org/1999/xlink">
    <!-- Generator: sketchtool 3.7 (28169) - http://www.bohemiancoding.com/sketch -->
    <title>84FF41A4-ECBB-4541-9BBC-67A719725504</title>
    <desc>Created with sketchtool.</desc>
    <defs></defs>
    <g id="Page-1" stroke="none" stroke-width="1" fill="none" fill-rule="evenodd">
        <g id="desktop" transform="translate(-1925.000000, -3760.000000)" fill="#BBC4CB">
            <g id="slide3" transform="translate(0.000000, 2800.000000)">
                <g id="tagline" transform="translate(1589.000000, 232.000000)">
                    <g id="Group-2" transform="translate(0.000000, 444.000000)">
                        <g id="message_password" transform="translate(42.000000, 252.000000)">
                            <g id="icon_lock_gray" transform="translate(294.000000, 32.000000)">
                                <g id="Group" transform="translate(4.000000, 3.000000)">
                                    <path d="M8,7.99165249 L8,7.99165249 L8,16.0083475 C8,18.2032488 9.79629006,20 12,20 C14.2048817,20 16,18.2081457 16,16.0083475 L16,7.99165249 C16,5.79675116 14.2037099,4 12,4 C9.79511833,4 8,5.79185431 8,7.99165249 L8,7.99165249 Z M4,7.99165249 C4,3.57798469 7.59071231,0 12,0 C16.418278,0 20,3.59304249 20,7.99165249 L20,16.0083475 C20,20.4220153 16.4092877,24 12,24 C7.581722,24 4,20.4069575 4,16.0083475 L4,7.99165249 L4,7.99165249 Z" id="Rectangle-320-Copy"></path>
                                    <rect id="Rectangle-320" x="0" y="10" width="24" height="16" rx="4"></rect>
                                </g>
                            </g>
                        </g>
                    </g>
                </g>
            </g>
        </g>
    </g>
</svg>