<?xml version="1.0" encoding="UTF-8" standalone="no"?>
<svg width="60px" height="60px" viewBox="0 0 60 60" version="1.1" xmlns="http://www.w3.org/2000/svg" xmlns:xlink="http://www.w3.org/1999/xlink">
    <!-- Generator: sketchtool 3.7 (28169) - http://www.bohemiancoding.com/sketch -->
    <title>A4C2A8D7-E631-4495-A7A6-36A4AE4FC16E</title>
    <desc>Created with sketchtool.</desc>
    <defs></defs>
    <g id="Page-1" stroke="none" stroke-width="1" fill="none" fill-rule="evenodd">
        <g id="desktop" transform="translate(-380.000000, -6440.000000)" fill="#5FC48D">
            <g id="slide5" transform="translate(0.000000, 5600.000000)">
                <g id="Group-9" transform="translate(280.000000, 740.000000)">
                    <g id="icon_lock_green" transform="translate(100.000000, 100.000000)">
                        <g id="Group-32" transform="translate(14.000000, 9.929078)">
                            <path d="M4,20.8458842 L4,20.8458842 L4,30.7853214 C4,32.9727646 5.7984992,34.751773 8.0170604,34.751773 L23.9829396,34.751773 C26.1960993,34.751773 28,32.9759322 28,30.7853214 L28,20.8458842 C28,18.658441 26.2015008,16.8794326 23.9829396,16.8794326 L8.0170604,16.8794326 C5.80390072,16.8794326 4,18.6552735 4,20.8458842 L4,20.8458842 Z M0,20.8458842 L0,20.8458842 C0,16.4578523 3.59868606,12.9078014 8.0170604,12.9078014 L23.9829396,12.9078014 C28.4050592,12.9078014 32,16.4594095 32,20.8458842 L32,30.7853214 C32,35.1733534 28.4013139,38.7234043 23.9829396,38.7234043 L8.0170604,38.7234043 C3.59494078,38.7234043 0,35.1717962 0,30.7853214 L0,20.8458842 Z" id="Rectangle-320"></path>
                            <path d="M10,14.8992726 L22,14.8992726 L22,10.9163303 C22,7.62875445 19.3137085,4.96453901 16,4.96453901 C12.6930342,4.96453901 10,7.62924672 10,10.9163303 L10,14.8992726 Z M16,0.992907801 C21.5221178,0.992907801 26,5.4345574 26,10.9163303 L26,16.8850882 L6,16.8850882 L6,10.9163303 C6,5.43654785 10.4831103,0.992907801 16,0.992907801 Z" id="Rectangle-320-Copy"></path>
                            <ellipse id="Oval-9" cx="16" cy="25.8156028" rx="4" ry="3.97163121"></ellipse>
                        </g>
                    </g>
                </g>
            </g>
        </g>
    </g>
</svg>