<?xml version="1.0" encoding="UTF-8" standalone="no"?>
<svg width="60px" height="60px" viewBox="0 0 60 60" version="1.1" xmlns="http://www.w3.org/2000/svg" xmlns:xlink="http://www.w3.org/1999/xlink">
    <!-- Generator: sketchtool 3.7 (28169) - http://www.bohemiancoding.com/sketch -->
    <title>3DCF925D-367A-4AE2-8817-8D4386DECD1C</title>
    <desc>Created with sketchtool.</desc>
    <defs></defs>
    <g id="Page-1" stroke="none" stroke-width="1" fill="none" fill-rule="evenodd">
        <g id="desktop" transform="translate(-1180.000000, -6440.000000)" fill="#E37F77">
            <g id="slide5" transform="translate(0.000000, 5600.000000)">
                <g id="Group-10" transform="translate(1080.000000, 740.000000)">
                    <g id="icon_etherium" transform="translate(100.000000, 100.000000)">
                        <g id="Group-8" transform="translate(12.000000, 6.957447)">
                            <path d="M16.8716376,5.63239001 L16.8716376,5.63239001 L5.02943725,22.8297872 L16.8716376,40.0271845 C17.4915386,40.9274127 18.505185,40.9321707 19.1283624,40.0271845 L30.9705627,22.8297872 L19.1283624,5.63239001 C18.5084614,4.73216178 17.494815,4.72740378 16.8716376,5.63239001 L16.8716376,5.63239001 Z M13.5696547,3.39076815 L13.5696547,3.39076815 C15.7818106,0.178246516 20.2226383,0.184707397 22.4303453,3.39076815 L34.2725457,20.5881654 L35.816136,22.8297872 L34.2725457,25.0714091 L22.4303453,42.2688063 C20.2181894,45.481328 15.7773617,45.4748671 13.5696547,42.2688063 L1.72745432,25.0714091 L0.183864048,22.8297872 L1.72745432,20.5881654 L13.5696547,3.39076815 Z" id="Rectangle-109"></path>
                            <polygon id="Rectangle-109-Copy" points="18 2.00795188 32.9705627 22.8297872 3.02943725 22.8297872"></polygon>
                        </g>
                    </g>
                </g>
            </g>
        </g>
    </g>
</svg>