<?xml version="1.0" encoding="UTF-8" standalone="no"?>
<svg width="147px" height="154px" viewBox="0 0 147 154" version="1.1" xmlns="http://www.w3.org/2000/svg" xmlns:xlink="http://www.w3.org/1999/xlink">
    <!-- Generator: sketchtool 3.7 (28169) - http://www.bohemiancoding.com/sketch -->
    <title>7DDEF643-433C-4DEE-B018-F857F4796C5F</title>
    <desc>Created with sketchtool.</desc>
    <defs>
        <filter x="-50%" y="-50%" width="200%" height="200%" filterUnits="objectBoundingBox" id="filter-1">
            <feGaussianBlur stdDeviation="2" in="SourceGraphic"></feGaussianBlur>
        </filter>
        <filter x="-50%" y="-50%" width="200%" height="200%" filterUnits="objectBoundingBox" id="filter-2">
            <feGaussianBlur stdDeviation="10" in="SourceGraphic"></feGaussianBlur>
        </filter>
        <filter x="-50%" y="-50%" width="200%" height="200%" filterUnits="objectBoundingBox" id="filter-3">
            <feGaussianBlur stdDeviation="10" in="SourceGraphic"></feGaussianBlur>
        </filter>
    </defs>
    <g id="Page-1" stroke="none" stroke-width="1" fill="none" fill-rule="evenodd">
        <g id="desktop" transform="translate(-458.000000, -10.000000)">
            <g id="slide-top" transform="translate(0.000000, -2.000000)">
                <g id="logo_shadow" transform="translate(483.000000, 40.000000)">
                    <path d="M21.0464466,88.4043058 L22.7966272,88.4043058 C44.1752905,88.4043058 61.6230946,71.6046301 62.6136465,50.4992095 L19.2962661,50.4992095 C8.8136383,50.4992095 0.315789474,58.9822528 0.315789474,69.4517576 C0.315789474,79.9189609 8.82498822,88.4043058 19.2962661,88.4043058 L21.0464466,88.4043058 L21.0464466,88.4043058 Z M60.8051335,12.5348864 L59.054953,12.5348864 C37.6762897,12.5348864 20.2284856,29.3345621 19.2379337,50.4399827 L62.5553141,50.4399827 C73.0379419,50.4399827 81.5357907,41.9569393 81.5357907,31.4874346 C81.5357907,21.0202313 73.0265919,12.5348864 62.5553141,12.5348864 L60.8051335,12.5348864 L60.8051335,12.5348864 Z" id="Combined-Shape-Copy-2" fill="#524B60" opacity="0.2" filter="url(#filter-1)"></path>
                    <path d="M28.5351023,98 L30.4577674,98 C53.9433498,98 73.1106773,79.5446756 74.1988506,56.3592645 L26.6124372,56.3592645 C15.0967211,56.3592645 5.76138861,65.6783324 5.76138861,77.1796322 C5.76138861,88.6784038 15.1091895,98 26.6124372,98 L28.5351023,98 L28.5351023,98 Z M72.2121043,14.6534653 L70.2894392,14.6534653 C46.8038568,14.6534653 27.6365293,33.1087898 26.548356,56.2942008 L74.1347694,56.2942008 C85.6504855,56.2942008 94.985818,46.975133 94.985818,35.4738331 C94.985818,23.9750615 85.6380171,14.6534653 74.1347694,14.6534653 L72.2121043,14.6534653 L72.2121043,14.6534653 Z" id="Combined-Shape" fill="#2D9DF1" opacity="0.1" filter="url(#filter-2)"></path>
                    <path d="M24.8508918,83.3465347 L26.7735569,83.3465347 C50.2591393,83.3465347 69.4264668,64.8912102 70.51464,41.7057992 L22.9282267,41.7057992 C11.4125105,41.7057992 2.07717809,51.024867 2.07717809,62.5261669 C2.07717809,74.0249385 11.424979,83.3465347 22.9282267,83.3465347 L24.8508918,83.3465347 L24.8508918,83.3465347 Z M68.5278937,0 L66.6052286,0 C43.1196463,0 23.9523187,18.4553244 22.8641455,41.6407355 L70.4505589,41.6407355 C81.966275,41.6407355 91.3016075,32.3216676 91.3016075,20.8203678 C91.3016075,9.32159616 81.9538065,4.75711879e-13 70.4505589,4.66003473e-13 L68.5278937,4.66003473e-13 L68.5278937,0 Z" id="Combined-Shape-Copy-4" fill="#C4A6FF" opacity="0.1" filter="url(#filter-3)"></path>
                </g>
            </g>
        </g>
    </g>
</svg>