<?xml version="1.0" encoding="UTF-8" standalone="no"?>
<svg width="649px" height="1330px" viewBox="0 0 649 1330" version="1.1" xmlns="http://www.w3.org/2000/svg" xmlns:xlink="http://www.w3.org/1999/xlink">
    <!-- Generator: Sketch 3.7.2 (28276) - http://www.bohemiancoding.com/sketch -->
    <title>phone_big</title>
    <desc>Created with Sketch.</desc>
    <defs></defs>
    <g id="Symbols" stroke="none" stroke-width="1" fill="none" fill-rule="evenodd">
        <g id="phone_big" transform="translate(1.000000, 1.000000)">
            <g id="phone-copy">
                <g id="phone_big">
                    <path d="M541.320936,0 C543.114359,0 544.89662,0.0460938086 546.667305,0.137866166 C561.250342,0.889485929 575.132215,0.163612258 589.354748,4.40175109 C603.282925,8.55227017 616.364414,16.0854934 625.793322,27.332798 C639.134854,43.2472045 643.980983,64.6521726 644,85.9587242 C643.998346,88.0042927 643.864811,1224.58709 644,1225.01563 C643.244679,1247.89228 642.141256,1273.06407 629.855604,1292.89977 C621.293641,1306.7221 607.754494,1317.14636 592.190821,1321.72875 C577.628042,1326.01672 562.368234,1327.60758 545.763979,1327.90491 C544.290544,1327.96803 542.809667,1328 541.320936,1328 L537.280152,1328 L102.267102,1328 C86.2565203,1328 69.0155957,1326.64875 53.6222525,1322.08878 C33.4493412,1316.1132 17.3134927,1302.9802 8.89746735,1283.44514 C4.85709718,1274.06651 2.06175891,1265.12373 1.03087945,1253.96836 C-3.92263257e-10,1242.81299 0.139955713,1234.28547 6.04315e-14,1224.18512 C6.04315e-14,1224.18512 0.15172576,94.5205453 6.04315e-14,92.1876173 C0.0533313979,90.3280851 1.98568743e-09,88.297854 1.34088131e-14,85.9587242 C-3.92249845e-10,64.3853589 4.62971525,42.5981538 18.4640452,26.5811782 C27.0946364,16.5892033 38.7291496,9.4376035 51.217792,5.23974484 C66.4002901,0.136620388 81.2090549,0.952190119 96.8793906,0.139527205 C98.6633052,0.0469243277 100.459622,0 102.267102,0 L541.320936,0 Z" id="bg" stroke="#D2D7DB" stroke-width="2" fill="#F6F8F9"></path>
                    <path d="M643.59322,434.067797 L645.59322,434.067797 C646.69779,434.067797 647.59322,434.892683 647.59322,435.914953 L647.59322,514.22064 C647.59322,515.240796 646.705491,516.067797 645.59322,516.067797 L643.59322,516.067797 L643.59322,434.067797 L643.59322,434.067797 Z M643.59322,550.847458 L645.59322,550.847458 C646.69779,550.847458 647.59322,551.668501 647.59322,552.682978 L647.59322,651.011937 C647.59322,652.025667 646.705491,652.847458 645.59322,652.847458 L643.59322,652.847458 L643.59322,550.847458 L643.59322,550.847458 Z" id="Combined-Shape" fill="#CCD1D5"></path>
                    <path d="M249.932203,70.1016949 C249.932203,66.7879864 252.882171,64.1016949 256.506258,64.1016949 L473.358149,64.1016949 C476.988899,64.1016949 479.932203,66.7947291 479.932203,70.1016949 C479.932203,73.4154034 476.982236,76.1016949 473.358149,76.1016949 L256.506258,76.1016949 C252.875508,76.1016949 249.932203,73.4086607 249.932203,70.1016949 L249.932203,70.1016949 Z M164,70 C164,66.1340068 167.141873,63 171,63 C174.865993,63 178,66.1418733 178,70 C178,73.8659932 174.858127,77 171,77 C167.134007,77 164,73.8581267 164,70 L164,70 Z" id="Combined-Shape" stroke="#D2D7DB" stroke-width="2" fill="#EEF2F5"></path>
                    <path d="M217.583789,1257 L426.416211,1257 C430.052337,1257 433,1260.14187 433,1264 C433,1267.86599 430.050288,1271 426.416211,1271 L217.583789,1271 C213.947663,1271 211,1267.85813 211,1264 C211,1260.13401 213.949712,1257 217.583789,1257 Z" id="Combined-Shape" stroke="#D2D7DB" stroke-width="2" fill="#EEF2F5"></path>
                </g>
            </g>
        </g>
    </g>
</svg>