<?xml version="1.0" encoding="UTF-8" standalone="no"?>
<svg width="549px" height="1126px" viewBox="0 0 549 1126" version="1.1" xmlns="http://www.w3.org/2000/svg" xmlns:xlink="http://www.w3.org/1999/xlink">
    <!-- Generator: Sketch 3.7.2 (28276) - http://www.bohemiancoding.com/sketch -->
    <title>phone_new_ios</title>
    <desc>Created with Sketch.</desc>
    <defs></defs>
    <g id="Symbols" stroke="none" stroke-width="1" fill="none" fill-rule="evenodd">
        <g id="phone_new_ios" transform="translate(-2.000000, 1.000000)" stroke-width="2" stroke="#D2D7DB">
            <g id="phone-copy" transform="translate(3.000000, 0.000000)">
                <g id="phone_new_ios">
                    <path d="M459.173959,0 C460.695226,0 462.207023,0.0390131332 463.709002,0.11668793 C476.079022,0.75284803 487.854282,0.138479049 499.918505,3.72557849 C511.733042,7.23851782 522.829378,13.6145291 530.827423,23.1340851 C542.14434,36.6038086 546.255055,54.7206642 546.271186,72.7542214 C546.269784,74.485561 546.156513,1036.47281 546.271186,1036.83552 C545.630487,1056.19799 544.694512,1077.50302 534.273242,1094.29167 C527.010581,1105.99069 515.526038,1114.81364 502.324196,1118.69211 C489.97136,1122.32138 477.027271,1123.66786 462.942758,1123.91951 C461.692921,1123.97294 460.436772,1124 459.173959,1124 L455.746376,1124 L86.7477814,1124 C73.1668505,1124 58.5422847,1122.85632 45.4849247,1118.99683 C28.3733095,1113.93918 14.6861214,1102.8236 7.54725162,1086.28941 C4.12001901,1078.35147 1.74888119,1070.78243 0.874440593,1061.34069 C-3.32736203e-10,1051.89895 0.11871704,1044.68138 5.12608497e-14,1036.13258 C5.12608497e-14,1036.13258 0.128700948,80.000823 5.12608497e-14,78.0262664 C0.0452382081,76.4523852 1.68435377e-09,74.734027 1.13739879e-14,72.7542214 C-3.32724827e-10,54.4948369 3.92714293,36.0544615 15.6620744,22.497925 C22.982949,14.0408618 32.8518921,7.98785116 43.4453478,4.43484428 C56.323859,0.115633521 68.8853522,0.80591995 82.1776703,0.118093809 C83.6908708,0.0397160725 85.2145919,0 86.7477814,0 L459.173959,0 Z" id="bg" fill="#F6F8F9"></path>
                    <path d="M232,84 C232,80.6862915 234.684619,78 237.996634,78 L306.003366,78 C309.315215,78 312,80.6930342 312,84 C312,87.3137085 309.315381,90 306.003366,90 L237.996634,90 C234.684785,90 232,87.3069658 232,84 Z M272,66 C275.313708,66 278,63.3137085 278,60 C278,56.6862915 275.313708,54 272,54 C268.686292,54 266,56.6862915 266,60 C266,63.3137085 268.686292,66 272,66 Z" id="Combined-Shape" fill="#EEF2F5"></path>
                </g>
            </g>
        </g>
    </g>
</svg>